<svg width="154" height="33" viewBox="0 0 154 33" fill="none" xmlns="http://www.w3.org/2000/svg">
<path d="M47.8621 9.76C49.5101 9.76 50.8061 10.312 51.7501 11.416C52.6941 12.504 53.1661 14.024 53.1661 15.976C53.1661 17.928 52.6941 19.464 51.7501 20.584C50.8061 21.688 49.5101 22.24 47.8621 22.24C46.9981 22.24 46.2221 22.048 45.5341 21.664C44.8621 21.28 44.3421 20.752 43.9741 20.08V27.04H41.4061V10H43.6621L43.7821 12.232C44.1341 11.48 44.6621 10.88 45.3661 10.432C46.0861 9.984 46.9181 9.76 47.8621 9.76ZM47.2861 20.152C48.3261 20.152 49.1341 19.792 49.7101 19.072C50.3021 18.336 50.5981 17.312 50.5981 16C50.5981 14.688 50.3021 13.664 49.7101 12.928C49.1341 12.192 48.3261 11.824 47.2861 11.824C46.3101 11.824 45.5261 12.152 44.9341 12.808C44.3581 13.464 44.0381 14.376 43.9741 15.544V16.456C44.0381 17.608 44.3581 18.512 44.9341 19.168C45.5261 19.824 46.3101 20.152 47.2861 20.152ZM67.2278 15.64C67.2278 16.104 67.1958 16.544 67.1318 16.96H58.3478C58.4918 18.016 58.8678 18.824 59.4758 19.384C60.0838 19.928 60.8678 20.2 61.8278 20.2C62.6118 20.2 63.2598 20.064 63.7718 19.792C64.2998 19.504 64.6598 19.096 64.8518 18.568L66.9878 19.456C66.0918 21.312 64.3718 22.24 61.8278 22.24C59.9398 22.24 58.4598 21.688 57.3878 20.584C56.3318 19.48 55.8038 17.952 55.8038 16C55.8038 14.032 56.3158 12.504 57.3398 11.416C58.3638 10.312 59.8038 9.76 61.6598 9.76C63.4198 9.76 64.7878 10.296 65.7638 11.368C66.7398 12.44 67.2278 13.864 67.2278 15.64ZM61.6598 11.8C60.7318 11.8 59.9798 12.072 59.4038 12.616C58.8438 13.16 58.4918 13.952 58.3478 14.992H64.8278C64.6998 13.984 64.3558 13.2 63.7958 12.64C63.2518 12.08 62.5398 11.8 61.6598 11.8ZM77.9399 21.208C77.5559 21.528 77.0839 21.784 76.5239 21.976C75.9799 22.152 75.3879 22.24 74.7479 22.24C73.6439 22.24 72.7559 21.968 72.0839 21.424C71.4279 20.864 71.0919 20 71.0759 18.832V12.016H68.7959V10H71.0759V7.192L73.6439 6.472V10H77.8439V12.016H73.6439V18.4C73.6439 18.976 73.7959 19.408 74.0999 19.696C74.4199 19.968 74.8519 20.104 75.3959 20.104C76.1319 20.104 76.7799 19.848 77.3399 19.336L77.9399 21.208Z" fill="#7239F2"/>
<path d="M86.7918 9.76C88.4398 9.76 89.7358 10.32 90.6797 11.44C91.6238 12.544 92.0958 14.072 92.0958 16.024C92.0958 17.976 91.6238 19.504 90.6797 20.608C89.7358 21.696 88.4398 22.24 86.7918 22.24C85.8478 22.24 85.0158 22.016 84.2958 21.568C83.5918 21.12 83.0638 20.52 82.7118 19.768L82.5918 22H80.3358V4.6H82.9038V11.92C83.2718 11.248 83.7918 10.72 84.4638 10.336C85.1518 9.952 85.9278 9.76 86.7918 9.76ZM86.2158 20.176C87.2558 20.176 88.0638 19.808 88.6398 19.072C89.2318 18.336 89.5278 17.312 89.5278 16C89.5278 14.688 89.2318 13.672 88.6398 12.952C88.0638 12.216 87.2558 11.848 86.2158 11.848C85.2398 11.848 84.4558 12.176 83.8638 12.832C83.2878 13.488 82.9678 14.392 82.9038 15.544V16.456C82.9678 17.624 83.2878 18.536 83.8638 19.192C84.4558 19.848 85.2398 20.176 86.2158 20.176ZM106.302 10V22H104.022L103.926 20.056C103.11 21.512 101.686 22.24 99.6535 22.24C98.3575 22.24 97.3095 21.888 96.5095 21.184C95.7255 20.464 95.3335 19.368 95.3335 17.896V10H97.9015V17.224C97.9015 18.28 98.1095 19.032 98.5255 19.48C98.9415 19.912 99.5575 20.128 100.374 20.128C101.35 20.128 102.15 19.824 102.774 19.216C103.414 18.592 103.734 17.68 103.734 16.48V10H106.302ZM121.401 4.6V22H119.145L119.001 19.864C118.649 20.584 118.113 21.16 117.393 21.592C116.689 22.024 115.881 22.24 114.969 22.24C113.321 22.24 112.017 21.696 111.057 20.608C110.113 19.504 109.641 17.976 109.641 16.024C109.641 14.072 110.113 12.544 111.057 11.44C112.017 10.32 113.321 9.76 114.969 9.76C115.849 9.76 116.625 9.96 117.297 10.36C117.969 10.744 118.481 11.272 118.833 11.944V4.6H121.401ZM115.545 20.176C116.553 20.176 117.353 19.816 117.945 19.096C118.537 18.376 118.833 17.392 118.833 16.144V15.856C118.833 14.608 118.537 13.632 117.945 12.928C117.353 12.208 116.553 11.848 115.545 11.848C114.505 11.848 113.689 12.216 113.097 12.952C112.521 13.672 112.233 14.688 112.233 16C112.233 17.312 112.521 18.336 113.097 19.072C113.689 19.808 114.505 20.176 115.545 20.176ZM136.495 4.6V22H134.239L134.095 19.864C133.743 20.584 133.207 21.16 132.487 21.592C131.783 22.024 130.975 22.24 130.063 22.24C128.415 22.24 127.111 21.696 126.151 20.608C125.207 19.504 124.735 17.976 124.735 16.024C124.735 14.072 125.207 12.544 126.151 11.44C127.111 10.32 128.415 9.76 130.063 9.76C130.943 9.76 131.719 9.96 132.391 10.36C133.063 10.744 133.575 11.272 133.927 11.944V4.6H136.495ZM130.639 20.176C131.647 20.176 132.447 19.816 133.039 19.096C133.631 18.376 133.927 17.392 133.927 16.144V15.856C133.927 14.608 133.631 13.632 133.039 12.928C132.447 12.208 131.647 11.848 130.639 11.848C129.599 11.848 128.783 12.216 128.191 12.952C127.615 13.672 127.327 14.688 127.327 16C127.327 17.312 127.615 18.336 128.191 19.072C128.783 19.808 129.599 20.176 130.639 20.176ZM146.02 23.416C145.492 24.792 144.892 25.76 144.22 26.32C143.548 26.88 142.668 27.16 141.58 27.16C140.956 27.16 140.412 27.08 139.948 26.92C139.5 26.776 139.1 26.536 138.748 26.2L139.492 24.232C139.972 24.808 140.628 25.096 141.46 25.096C141.94 25.096 142.34 24.968 142.66 24.712C142.996 24.472 143.292 24.024 143.548 23.368L144.076 22.072L142.828 19.096L139.084 10H141.964L144.604 17.536L145.3 19.792L146.116 17.32L148.612 10H151.276L146.02 23.416Z" fill="#FFB900"/>
<rect y="3" width="30" height="30" rx="15" fill="#7239F2"/>
<path d="M23.0313 11.3055C22.907 11.7704 22.6872 12.19 22.4076 12.5564C22.4637 12.3013 22.4999 12.0386 22.4999 11.7656C22.4999 9.82396 21.0009 8.25 19.1517 8.25C17.3025 8.25 15.8034 9.82396 15.8034 11.7656C15.8034 12.583 16.0801 13.3256 16.5257 13.9226L11.831 18.8521C11.2623 18.3842 10.5551 18.0937 9.77668 18.0937C7.92747 18.0937 6.42847 19.6677 6.42847 21.6094C6.42847 23.1051 7.32168 24.3741 8.57562 24.882C8.69995 24.4171 8.91976 23.9975 9.19932 23.6312C9.14333 23.8862 9.10703 24.1489 9.10703 24.4219C9.10703 26.3635 10.606 27.9375 12.4552 27.9375C14.3044 27.9375 15.8035 26.3635 15.8035 24.4219C15.8035 23.6044 15.5268 22.8619 15.0812 22.2648L19.7759 17.3354C20.3445 17.8034 21.0517 18.0937 21.8302 18.0937C23.6794 18.0937 25.1784 16.5197 25.1784 14.5781C25.1784 13.0823 24.2852 11.8134 23.0313 11.3055Z" fill="#C578FF"/>
</svg>
